<svg width="24" height="24" viewBox="0 0 24 24" fill="none" xmlns="http://www.w3.org/2000/svg">
<g id="Icons/edit-3">
<g id="Vector">
<path fill-rule="evenodd" clip-rule="evenodd" d="M15.7929 3.35355C16.3783 2.76818 17.1722 2.43933 18 2.43933C18.4099 2.43933 18.8158 2.52007 19.1945 2.67693C19.5732 2.83379 19.9173 3.0637 20.2071 3.35355C20.497 3.64339 20.7269 3.98748 20.8837 4.36617C21.0406 4.74487 21.1213 5.15075 21.1213 5.56065C21.1213 5.97055 21.0406 6.37643 20.8837 6.75513C20.7269 7.13383 20.497 7.47792 20.2071 7.76776L7.70713 20.2678C7.57897 20.3959 7.41839 20.4868 7.24256 20.5308L3.24256 21.5308C2.90178 21.616 2.54129 21.5161 2.29291 21.2678C2.04453 21.0194 1.94468 20.6589 2.02988 20.3181L3.02988 16.3181C3.07384 16.1423 3.16476 15.9817 3.29291 15.8535L15.7929 3.35355ZM18 4.43933C17.7026 4.43933 17.4174 4.55747 17.2071 4.76776L4.90299 17.0719L4.37439 19.1863L6.48877 18.6577L18.7929 6.35354C18.897 6.24942 18.9796 6.12581 19.036 5.98976C19.0923 5.85372 19.1213 5.70791 19.1213 5.56065C19.1213 5.4134 19.0923 5.26759 19.036 5.13154C18.9796 4.9955 18.897 4.87188 18.7929 4.76776C18.6888 4.66363 18.5652 4.58104 18.4291 4.52469C18.2931 4.46834 18.1473 4.43933 18 4.43933Z" fill="#18794E"/>
<path d="M11 20.5606C11 20.0084 11.4477 19.5606 12 19.5606H21C21.5523 19.5606 22 20.0084 22 20.5606C22 21.1129 21.5523 21.5606 21 21.5606H12C11.4477 21.5606 11 21.1129 11 20.5606Z" fill="#18794E"/>
</g>
</g>
</svg>
